<?xml version="1.0" standalone="no"?><!DOCTYPE svg PUBLIC "-//W3C//DTD SVG 1.1//EN" "http://www.w3.org/Graphics/SVG/1.1/DTD/svg11.dtd"><svg class="icon" height="512" viewBox="0 0 1024 1024" version="1.1" xmlns="http://www.w3.org/2000/svg"><path d="M621.867569 395.72323a336.647405 336.647405 0 0 0-226.12756 88.020153V452.25512h-113.06378a56.53189 56.53189 0 0 0 0 113.06378h47.034532a335.460235 335.460235 0 0 0 105.092784 452.25512H226.144339a113.06378 113.06378 0 0 1-113.06378-113.06378V113.06378a113.06378 113.06378 0 0 1 113.06378-113.06378h565.3189a113.06378 113.06378 0 0 1 113.06378 113.06378v434.786766a338.626021 338.626021 0 0 0-282.65945-152.127316z m113.06378-169.59567h-452.25512a56.53189 56.53189 0 0 0 0 113.06378h452.25512a56.53189 56.53189 0 0 0 0-113.06378zM453.232941 568.032431a225.675305 225.675305 0 0 1 354.115759 274.179666l85.871941 85.589282a52.34853 52.34853 0 0 1 3.335382 5.031338c1.865552-2.600467 4.296424-4.748679 6.105444-7.405678a107.410591 107.410591 0 0 1-3.844169 10.910655 55.231657 55.231657 0 0 1-78.240136 76.318052c-2.770063 0.734915-5.144402 2.261276-8.027528 2.826594 1.978616-1.356765 3.504977-3.109254 5.653189-4.522551a52.405062 52.405062 0 0 1-4.805211-3.165786l-85.589281-85.589281a225.675305 225.675305 0 0 1-274.57539-354.172291z m79.936093 239.864809a113.06378 113.06378 0 1 0 0-159.872185 113.06378 113.06378 0 0 0 0 159.872185z" fill="#0078D7" /></svg>